<svg xmlns="http://www.w3.org/2000/svg" width="166" height="211" viewBox="0 0 166 211">
    <defs>
        <linearGradient id="a" x1="37.469%" x2="54.644%" y1="0%" y2="75.429%">
            <stop offset="0%" stop-color="#454545"/>
            <stop offset="100%" stop-color="#212121"/>
        </linearGradient>
        <linearGradient id="b" x1="93.399%" x2="23.104%" y1="34.553%" y2="56.359%">
            <stop offset="0%" stop-color="#FFF"/>
            <stop offset="100%" stop-color="#EDEDED"/>
        </linearGradient>
        <linearGradient id="c" x1="64.305%" x2="40.063%" y1="0%" y2="93.069%">
            <stop offset="0%" stop-color="#F8B8A8"/>
            <stop offset="100%" stop-color="#EE826F"/>
        </linearGradient>
        <radialGradient id="d" cx="89.64%" cy="10.778%" r="100.75%" fx="89.64%" fy="10.778%">
            <stop offset="0%" stop-color="#FFC3B8"/>
            <stop offset="100%" stop-color="#EE826F"/>
        </radialGradient>
    </defs>
    <g fill="none" fill-rule="evenodd" transform="translate(0 1)">
        <path fill="#DADADA" d="M161 112.17L115.498 138 70 112.17 115.616 91z" opacity=".65"/>
        <path fill="url(#a)" d="M50 111L4 85.013V25l46 25.987z" transform="translate(66)"/>
        <path fill="url(#b)" d="M95 25.17L49.498 51 4 25.17 49.616 4z" transform="translate(66)"/>
        <path fill="url(#c)" d="M49 111l46-25.987V25L49 50.987V67z" transform="translate(66)"/>
        <path stroke="#3898E0" stroke-width="1.152" d="M70 25l46 26M116 4L70 25M69.5 85V25M116 4l45 21M115 51l46-26M161.5 85V25M115.5 111V51M115 111l46-26M70 85l46 26"/>
        <g stroke="#3898E0" stroke-width="1.152">
            <path d="M112.099 110.293c0-1.932 1.596-3.497 3.565-3.497 1.968 0 3.564 1.565 3.564 3.497s-1.596 3.498-3.564 3.498c-1.969 0-3.565-1.566-3.565-3.498zM112.099 50.91c0-1.931 1.596-3.497 3.565-3.497 1.968 0 3.564 1.566 3.564 3.497 0 1.932-1.596 3.498-3.564 3.498-1.969 0-3.565-1.566-3.565-3.498zM66.33 24.981c0-1.931 1.596-3.497 3.564-3.497 1.969 0 3.565 1.566 3.565 3.497 0 1.932-1.596 3.498-3.565 3.498-1.968 0-3.564-1.566-3.564-3.498zM66.33 84.595c0-1.931 1.596-3.497 3.564-3.497 1.969 0 3.565 1.566 3.565 3.497 0 1.932-1.596 3.498-3.565 3.498-1.968 0-3.564-1.566-3.564-3.498zM157.446 24.981c0-1.931 1.596-3.497 3.564-3.497 1.969 0 3.565 1.566 3.565 3.497 0 1.932-1.596 3.498-3.565 3.498-1.968 0-3.564-1.566-3.564-3.498zM112.205 3.824c0-1.932 1.596-3.498 3.564-3.498 1.969 0 3.565 1.566 3.565 3.498 0 1.932-1.596 3.497-3.565 3.497-1.968 0-3.564-1.565-3.564-3.497zM157.55 84.644c0-1.932 1.597-3.497 3.565-3.497 1.969 0 3.565 1.565 3.565 3.497s-1.596 3.498-3.565 3.498c-1.968 0-3.564-1.566-3.564-3.498z"/>
        </g>
        <ellipse cx="30" cy="188.5" fill="#DADADA" opacity=".65" rx="30" ry="21.5"/>
        <circle cx="30" cy="159" r="30" fill="url(#d)"/>
    </g>
</svg>
