<?xml version="1.0" encoding="UTF-8"?>
<svg width="528px" height="210px" viewBox="0 0 528 210" version="1.1" xmlns="http://www.w3.org/2000/svg" xmlns:xlink="http://www.w3.org/1999/xlink">
    <!-- Generator: Sketch 51.3 (57544) - http://www.bohemiancoding.com/sketch -->
    <title>Group 26</title>
    <desc>Created with Sketch.</desc>
    <defs>
        <linearGradient x1="35.8912786%" y1="-81.4126809%" x2="58.7113062%" y2="131.139565%" id="linearGradient-1">
            <stop stop-color="#2F2F2F" offset="0%"></stop>
            <stop stop-color="#26282F" offset="100%"></stop>
        </linearGradient>
    </defs>
    <g id="Page-1" stroke="none" stroke-width="1" fill="none" fill-rule="evenodd">
        <g id="Desktop-HD" transform="translate(-273.000000, -1440.000000)">
            <g id="Group-26" transform="translate(273.000000, 1440.000000)">
                <path d="M83.5,161 L83.5,209.5" id="Path-2" stroke="#EE826F" stroke-width="5"></path>
                <g id="Group-25">
                    <path d="M161.5,76 L527.5,76.5" id="Path-2-Copy" stroke="#EE826F" stroke-width="5"></path>
                    <g id="Group-9">
                        <g id="Group-21">
                            <g id="Group-3">
                                <path d="M22.3605521,0 C10.011349,0 0,10.011349 0,22.3605521 L0,138.638609 C0,150.988651 10.011349,161 22.3605521,161 L138.638609,161 C150.987813,161 161,150.988651 161,138.638609 L161,22.3605521 C161,10.011349 150.987813,0 138.638609,0 L22.3605521,0 Z" id="Clip-2"></path>
                                <path d="M22.3605521,0 C10.011349,0 0,10.011349 0,22.3605521 L0,138.638609 C0,150.988651 10.011349,161 22.3605521,161 L138.638609,161 C150.987813,161 161,150.988651 161,138.638609 L161,22.3605521 C161,10.011349 150.987813,0 138.638609,0 L22.3605521,0 Z" id="Fill-1" fill="url(#linearGradient-1)"></path>
                            </g>
                            <g id="Group-8" transform="translate(21.000000, 49.000000)">
                                <path d="M36.9243592,43.3273263 C40.1281408,42.0161684 42.1888521,39.6885895 43.0746479,36.3235368 C43.2162746,35.7871158 43.2045423,35.7845895 42.6413873,35.7845895 L42.3195845,35.7845895 C41.7497254,35.7837474 41.7555915,35.7854316 41.5955282,36.3134316 C40.8371127,38.8212211 39.2767042,40.6368 36.9235211,41.7660632 C36.7961408,41.8283789 36.6201549,41.8359579 36.6276972,42.0641684 C36.6427817,42.5045895 36.6318873,42.9466947 36.6318873,43.3795368 C36.7567535,43.4283789 36.8405563,43.3610105 36.9243592,43.3273263 M24.3329859,38.1955368 C25.3897394,40.4363789 27.0557394,42.0624842 29.2899225,43.1092211 C29.5279225,43.2220632 29.6544648,43.2448 29.6251338,42.9062737 C29.5991549,42.6090105 29.6050211,42.3066947 29.6242958,42.0085895 C29.6402183,41.7643789 29.5597676,41.6363789 29.3351761,41.5134316 C25.9947958,39.6826947 24.2533732,35.9681684 24.9874859,32.2704842 C25.6897535,28.7302737 28.56,25.9883789 32.1333521,25.4443789 C35.6455282,24.9096421 39.180331,26.6940632 40.8982887,29.8570105 C41.0600282,30.1542737 41.0901972,30.5955368 41.3944014,30.7218526 C41.6910634,30.8439579 42.0757183,30.7504842 42.4218239,30.7513263 C42.8525704,30.7513263 42.8525704,30.7504842 42.7017254,30.3605895 C41.025669,26.0111158 36.6553521,23.4014316 32.0495493,24.0018526 C27.1345141,24.6418526 23.4094789,28.9104842 23.3927183,34.2544842 C23.3952324,35.4149053 23.6952465,36.8456421 24.3329859,38.1955368 M78.035507,30.1306947 C77.1136761,32.4254316 77.0298732,34.7521684 77.7807465,37.1109053 C77.8377324,37.2911158 77.9625986,37.4688 78.1050634,37.3281684 C78.302,37.1328 78.6120704,37.1378526 78.7402887,36.9702737 C78.8567746,36.8186947 79.2045563,36.8363789 79.0905845,36.4498526 C78.302838,33.7576421 78.7377746,31.2523789 80.3132676,28.9408 C80.3618732,28.8675368 80.4791972,28.7976421 80.4088028,28.6949053 C80.1372817,28.2974316 80.0249859,27.8048 79.6746901,27.4359579 C78.9749366,28.2553263 78.4302183,29.1479579 78.035507,30.1306947 M86.4736127,25.1260632 C86.5381408,25.2751158 86.6512746,25.3930105 86.8800563,25.3744842 C87.5362324,25.3205895 88.1882183,25.3955368 88.8368521,25.5083789 C93.4862324,26.3226947 96.657331,31.0856421 95.6299085,35.7130105 C94.2823592,41.7820632 87.5069014,44.4911158 82.3873873,41.0056421 C82.168662,40.8557474 82.0161408,40.8271158 81.753838,40.9921684 C81.5267324,41.1344842 81.3046549,41.3146947 81.0406761,41.4064842 C80.7658028,41.5016421 80.7758592,41.6010105 81.0046408,41.7803789 C83.2539085,43.5344842 85.7914577,44.2654316 88.6097465,43.8949053 C93.3152746,43.2751158 96.9372324,39.3365895 97.2330563,34.5719579 C97.5003873,30.2932211 94.9896549,26.2738526 91.0308099,24.6637474 C89.3765423,23.9917474 87.6619366,23.7669053 85.8777746,24.0195368 C86.0219155,24.4549053 86.3127113,24.7513263 86.4736127,25.1260632 M5.58797183,45.4309053 C6.80814085,52.0742737 12.6936127,57.6313263 20.7596338,57.2161684 C20.914669,57.2077474 20.9683028,57.1690105 20.9632746,57.0115368 C20.9523803,56.7125895 20.9372958,56.4102737 20.9666268,56.1138526 C20.9942817,55.8182737 20.8803099,55.7601684 20.6113028,55.7677474 C19.2243662,55.8115368 17.8483239,55.7290105 16.4974225,55.3744842 C10.7426831,53.8662737 6.80143662,48.7504842 6.79221831,42.7749053 C6.79054225,41.6490105 6.783,40.5222737 6.79808451,39.3955368 C6.80227465,39.1386947 6.73020423,39.0645895 6.48130986,39.0848 C6.2089507,39.1066947 5.93156338,39.1083789 5.66004225,39.0839579 C5.39522535,39.0603789 5.3491338,39.1664842 5.35416197,39.4064842 C5.37008451,40.1012211 5.36002817,40.7959579 5.35919014,41.7972211 C5.33823944,42.8102737 5.34829577,44.1264842 5.58797183,45.4309053 M19.8453451,10.7563789 C18.8405493,10.7563789 17.8474859,10.8506947 16.8611268,11.0376421 C10.5591549,12.2351158 5.67261268,17.8965895 5.37176056,24.3454316 C5.36002817,24.5930105 5.43293662,24.6544842 5.66255634,24.6401684 C5.94748592,24.6224842 6.23492958,24.6241684 6.52069718,24.6401684 C6.72601408,24.6528 6.80478873,24.6048 6.81735915,24.3757474 C6.85674648,23.6582737 6.95228169,22.9458526 7.1190493,22.2452211 C8.54285915,16.2713263 13.6757817,12.1972211 19.784169,12.1972211 C30.7204366,12.1963789 41.6558662,12.1989053 52.5921338,12.1980632 C52.9357254,12.1980632 53.3974789,12.3184842 53.5927394,12.1441684 C53.817331,11.9429053 53.6262606,11.4671158 53.6706761,11.1159579 C53.7117394,10.7993263 53.580169,10.7538526 53.2969155,10.7546947 C47.5723451,10.7622737 41.8477746,10.7597474 36.1240423,10.7597474 C30.6978099,10.7589053 25.2715775,10.7605895 19.8453451,10.7563789 M33.3769859,45.4906947 C39.7057746,45.4915368 44.862162,40.3100632 44.862162,33.9504842 C44.862162,27.5909053 39.7057746,22.4094316 33.3769859,22.4094316 C27.0339507,22.4094316 21.8934859,27.5909053 21.8918099,33.9858526 C21.8901338,40.3083789 27.0641197,45.4906947 33.3769859,45.4906947 M33.408831,20.9702737 C40.5396127,20.9854316 46.3069225,26.8102737 46.2943521,33.9816421 C46.2809437,41.1445895 40.4826268,46.9433263 33.3451408,46.9298526 C26.2177113,46.9172211 20.4462113,41.0898526 20.4596197,33.9184842 C20.4730282,26.7555368 26.2746972,20.9551158 33.408831,20.9702737 M98.7473732,33.9496421 C98.7465352,27.5909053 93.5876338,22.4111158 87.2588451,22.4128 C80.9166479,22.4144842 75.7770211,27.5984842 75.7778592,33.9942737 C75.7778592,40.3159579 80.9535211,45.4965895 87.2663873,45.4949053 C93.5951761,45.4932211 98.7490493,40.3109053 98.7473732,33.9496421 M87.2865,20.9744842 C94.4181197,20.9862737 100.18962,26.8069053 100.179563,33.9782737 C100.169507,41.1420632 94.3745423,46.9441684 87.2387324,46.9340632 C80.1096268,46.9239579 74.3347746,41.0991158 74.345669,33.9302737 C74.3557254,26.7656421 80.1523662,20.9618526 87.2865,20.9744842 M99.155493,57.2195368 C100.053021,57.2195368 100.942169,57.1462737 101.823775,56.9879579 C108.538894,55.7778526 113.526,49.8418526 113.555331,42.9761684 C113.580472,36.9845895 113.562035,30.9930105 113.560359,25.0005895 C113.560359,24.0153263 113.450577,23.0401684 113.231852,22.0801684 C111.700775,15.3441684 105.987099,10.7648 99.1161056,10.7639579 C89.0513873,10.7631158 78.985831,10.7622737 68.9202746,10.7648 C68.5909296,10.7648 68.1534789,10.6199579 67.9640845,10.8288 C67.800669,11.0090105 67.9372676,11.4443789 67.9003944,11.7626947 C67.860169,12.1197474 67.9707887,12.2098526 68.336169,12.2098526 C78.5567606,12.1989053 88.7773521,12.2031158 98.9979437,12.1997474 C99.7747958,12.1997474 100.548296,12.2384842 101.312577,12.3673263 C107.602817,13.4325895 112.125655,18.8018526 112.129845,25.2085895 C112.133197,31.0688 112.129007,36.9281684 112.130683,42.7883789 C112.130683,43.7753263 112.032634,44.7504842 111.808042,45.7096421 C110.403507,51.6902737 105.250472,55.7795368 99.1236479,55.7786947 C76.7751127,55.7778526 54.4265775,55.7761684 32.0772042,55.7744842 C31.982507,55.7744842 31.8861338,55.7837474 31.7914366,55.7728 C31.6112606,55.7517474 31.5333239,55.8081684 31.5467324,56.0069053 C31.563493,56.2688 31.5760634,56.5374316 31.5442183,56.7959579 C31.5006408,57.1471158 31.622993,57.2220632 31.9657465,57.2212211 C43.2833169,57.2119579 54.6008873,57.2144842 65.9184577,57.2153263 C76.9971901,57.2161684 88.0767606,57.2153263 99.155493,57.2195368 M105.186782,63.3306947 C105.768373,63.2363789 106.352479,63.1546947 106.932394,63.0460632 C112.479303,62.0085895 117.111085,57.3534316 118.143535,51.7812211 C118.247451,51.2220632 118.33293,50.6603789 118.425951,50.0995368 C118.425951,45.4738526 118.426789,40.8481684 118.426789,36.2216421 C118.069789,36.2216421 117.710275,36.2443789 117.354113,36.2140632 C117.04907,36.1879579 116.988732,36.2923789 116.98957,36.5871158 C116.998789,40.6848 116.993761,44.7833263 116.996275,48.8826947 C116.996275,49.8805895 116.898225,50.8675368 116.668606,51.8384842 C115.254014,57.8098526 110.112711,61.8915368 104.008514,61.8915368 C90.0193099,61.8915368 76.0309437,61.8898526 62.0409014,61.8890105 C61.9579366,61.8890105 61.8732958,61.8982737 61.790331,61.8873263 C61.5925563,61.8612211 61.5213239,61.9328 61.5297042,62.1408 C61.5447887,62.5357474 61.5347324,62.9315368 61.5347324,63.3273263 C76.0854155,63.3281684 90.6352606,63.3290105 105.186782,63.3306947 M45.2811761,4.57195789 C45.2694437,4.51385263 45.2711197,4.48858947 45.2602254,4.47174737 C45.22,4.4128 45.1780986,4.35385263 45.132007,4.29827368 C44.0618451,2.99301053 42.6849648,2.28732632 41.0005282,2.28058947 C36.3964014,2.26374737 31.7922746,2.26290526 27.1889859,2.27974737 C25.4903028,2.28648421 24.1058803,2.99974737 23.0365563,4.32690526 C22.9829225,4.39427368 22.8815211,4.44985263 22.9301268,4.57027368 C30.373493,4.57111579 37.8151831,4.57195789 45.2811761,4.57195789 M75.3177817,4.55764211 C82.8332183,4.55848421 90.2799366,4.55848421 97.7702324,4.55932632 C97.6931338,4.45069474 97.6445282,4.37322105 97.5867042,4.30248421 C96.4964296,2.97532632 95.0969225,2.2848 93.3831549,2.28143158 C88.8267958,2.27301053 84.2712746,2.27890526 79.7149155,2.27637895 C79.282493,2.27553684 78.8576127,2.32185263 78.4402746,2.42627368 C77.1564155,2.74627368 76.128993,3.44437895 75.3177817,4.55764211 M118.427627,25.2911158 C118.046324,25.2911158 117.664183,25.2759579 117.283718,25.2961684 C117.043204,25.3096421 116.991246,25.2271158 116.991246,24.9972211 C117.000465,22.9845895 117.001303,20.9711158 116.996275,18.9584842 C116.982028,13.0368 112.993014,7.88143158 107.302803,6.42290526 C106.223423,6.14669474 105.126444,6.01785263 104.012704,6.01785263 C74.2593521,6.01616842 44.506,6.01195789 14.7526479,6.01448421 C8.41212676,6.01448421 3.0671831,10.5896421 2.01797183,16.8911158 C1.90148592,17.5883789 1.85371831,18.2932211 1.85371831,19.0022737 C1.85539437,28.9601684 1.8503662,38.9189053 1.85455634,48.8768 C1.85707042,55.2843789 6.37404225,60.6477474 12.6667958,61.7197474 C13.3841479,61.8410105 14.1090423,61.8881684 14.8389648,61.8881684 C24.5818803,61.8848 34.3247958,61.8890105 44.0677113,61.8789053 C44.4213592,61.8789053 44.5512535,61.9504842 44.5101901,62.3210105 C44.4741549,62.6519579 44.5026479,62.9913263 44.5026479,63.3256421 C34.1982535,63.3256421 23.8930211,63.3248 13.5877887,63.3239579 C13.1821831,63.1866947 12.7522746,63.1909053 12.3349366,63.1226947 C6.53661972,62.1702737 1.80762676,57.5488 0.698077465,51.7323789 C0.598352113,51.2111158 0.513711268,50.6864842 0.421528169,50.1635368 C0.422366197,39.3778526 0.423204225,28.5904842 0.424042254,17.8039579 C0.561478873,17.3231158 0.562316901,16.8203789 0.655338028,16.3319579 C1.97271831,9.44185263 7.83807746,4.57532632 14.8322606,4.57364211 C16.8225775,4.57364211 18.8120563,4.56943158 20.8023732,4.57953684 C21.0671901,4.58122105 21.2163592,4.51890526 21.359662,4.2688 C22.2798169,2.65953684 23.6407746,1.60437895 25.4148803,1.07974737 C25.7408732,0.982905263 26.0886549,0.982063158 26.4020775,0.835536842 C31.506507,0.836378947 36.6109366,0.836378947 41.7162042,0.836378947 C41.7555915,0.857431579 41.7933028,0.891115789 41.8352042,0.897010526 C44.0702254,1.22206316 45.7446056,2.37995789 46.8692394,4.33785263 C46.9857254,4.53995789 47.1131056,4.58037895 47.3226127,4.58037895 C55.988662,4.57616842 64.6547113,4.57616842 73.3207606,4.58374737 C73.5545704,4.58374737 73.6735704,4.51385263 73.7900563,4.30837895 C74.6641197,2.76564211 75.9454648,1.71132632 77.6265493,1.16311579 C78.0505915,1.02501053 78.4939085,0.945852632 78.928007,0.838905263 C84.0089718,0.839747368 89.0899366,0.839747368 94.1700634,0.839747368 C94.1968803,0.859957895 94.2220211,0.893642105 94.2505141,0.897852632 C96.5165423,1.21027368 98.204331,2.38416842 99.3398592,4.36564211 C99.4395845,4.53995789 99.5485282,4.58458947 99.7345704,4.58374737 C101.128211,4.57616842 102.52269,4.58543158 103.916331,4.57869474 C104.932021,4.57364211 105.935141,4.67132632 106.93407,4.85995789 C112.470085,5.90753684 117.098514,10.5408 118.141021,16.0944842 C118.251641,16.6881684 118.33293,17.2877474 118.428465,17.8848 C118.428465,20.3530105 118.427627,22.8220632 118.427627,25.2911158" id="Fill-4" fill="#FFFFFF"></path>
                                <path d="M98.7473732,33.9498105 C98.7465352,27.5910737 93.5876338,22.4112842 87.2588451,22.4129684 C80.9166479,22.4146526 75.7770211,27.5986526 75.7778592,33.9944421 C75.7778592,40.3161263 80.9535211,45.4967579 87.2663873,45.4950737 C93.5951761,45.4933895 98.7490493,40.3110737 98.7473732,33.9498105 M87.2865,20.9738105 C94.4181197,20.9856 100.18962,26.8070737 100.179563,33.9784421 C100.169507,41.1422316 94.3745423,46.9443368 87.2387324,46.9342316 C80.1096268,46.9241263 74.3347746,41.0992842 74.345669,33.9304421 C74.3557254,26.7658105 80.1532042,20.9620211 87.2865,20.9738105 M99.155493,57.2197053 C100.053021,57.2197053 100.942169,57.1464421 101.823775,56.9872842 C108.538894,55.7780211 113.526,49.8420211 113.555331,42.9763368 C113.580472,36.9847579 113.562035,30.9923368 113.560359,25.0007579 C113.560359,24.0154947 113.450577,23.0394947 113.231852,22.0794947 C111.700775,15.3443368 105.987099,10.7649684 99.1161056,10.7641263 C89.0513873,10.7624421 78.985831,10.7616 68.9202746,10.7641263 C68.5909296,10.7649684 68.1534789,10.6192842 67.9640845,10.8289684 C67.800669,11.0083368 67.9372676,11.4445474 67.9003944,11.7620211 C67.860169,12.1199158 67.9707887,12.2100211 68.336169,12.2100211 C78.5567606,12.1982316 88.7773521,12.2024421 98.9979437,12.1999158 C99.7747958,12.1990737 100.548296,12.2386526 101.313415,12.3674947 C107.602817,13.4327579 112.125655,18.8020211 112.129845,25.2087579 C112.133197,31.0689684 112.129007,36.9283368 112.130683,42.7885474 C112.130683,43.7754947 112.033472,44.7506526 111.808042,45.7098105 C110.403507,51.6896 105.250472,55.7797053 99.1236479,55.7788632 C76.7751127,55.7780211 54.4265775,55.7763368 32.0772042,55.7746526 C31.982507,55.7746526 31.8861338,55.7839158 31.7922746,55.7729684 C31.6112606,55.7519158 31.5333239,55.8083368 31.5467324,56.0062316 C31.563493,56.2689684 31.5760634,56.5367579 31.5442183,56.7961263 C31.5006408,57.1472842 31.622993,57.2222316 31.9657465,57.2213895 C43.2833169,57.2121263 54.6008873,57.2146526 65.9184577,57.2154947 C76.9971901,57.2163368 88.0767606,57.2154947 99.155493,57.2197053" id="Fill-6" fill="#E87D6F"></path>
                            </g>
                        </g>
                    </g>
                </g>
            </g>
        </g>
    </g>
</svg>