<?xml version="1.0" encoding="UTF-8"?>
<svg width="416px" height="634px" viewBox="0 0 416 634" version="1.1" xmlns="http://www.w3.org/2000/svg" xmlns:xlink="http://www.w3.org/1999/xlink">
    <!-- Generator: Sketch 51.3 (57544) - http://www.bohemiancoding.com/sketch -->
    <title>Group 26</title>
    <desc>Created with Sketch.</desc>
    <defs>
        <linearGradient x1="84.8329526%" y1="-3.18247628%" x2="25.4884492%" y2="64.2529804%" id="linearGradient-1">
            <stop stop-color="#0F0F0F" offset="0%"></stop>
            <stop stop-color="#282828" offset="100%"></stop>
        </linearGradient>
        <linearGradient x1="69.8415146%" y1="10.8283318%" x2="34.1533759%" y2="86.6824656%" id="linearGradient-2">
            <stop stop-color="#808080" offset="0%"></stop>
            <stop stop-color="#494949" offset="100%"></stop>
        </linearGradient>
        <linearGradient x1="22.6830538%" y1="0%" x2="63.03974%" y2="74.8552881%" id="linearGradient-3">
            <stop stop-color="#939393" offset="0%"></stop>
            <stop stop-color="#525252" offset="100%"></stop>
        </linearGradient>
        <linearGradient x1="50%" y1="0%" x2="50%" y2="100%" id="linearGradient-4">
            <stop stop-color="#717171" offset="0%"></stop>
            <stop stop-color="#535353" offset="100%"></stop>
        </linearGradient>
        <radialGradient cx="44.8488966%" cy="127.340112%" fx="44.8488966%" fy="127.340112%" r="103.466957%" gradientTransform="translate(0.448489,1.273401),scale(0.229468,1.000000),rotate(95.864054),scale(1.000000,2.221545),translate(-0.448489,-1.273401)" id="radialGradient-5">
            <stop stop-color="#252525" offset="0%"></stop>
            <stop stop-color="#565656" offset="100%"></stop>
        </radialGradient>
        <linearGradient x1="82.852796%" y1="0.884386946%" x2="45.2835808%" y2="85.2141383%" id="linearGradient-6">
            <stop stop-color="#7E7E7E" offset="0%"></stop>
            <stop stop-color="#3B3B3B" offset="100%"></stop>
        </linearGradient>
        <linearGradient x1="38.8404778%" y1="-7.17051388%" x2="77.1360365%" y2="89.3384238%" id="linearGradient-7">
            <stop stop-color="#4D4D4D" offset="0%"></stop>
            <stop stop-color="#3B3B3B" offset="100%"></stop>
        </linearGradient>
        <linearGradient x1="22.0380159%" y1="14.2174373%" x2="80.9395027%" y2="105.764858%" id="linearGradient-8">
            <stop stop-color="#7C7C7C" offset="0%"></stop>
            <stop stop-color="#757575" offset="100%"></stop>
        </linearGradient>
        <linearGradient x1="69.4891609%" y1="-16.6666775%" x2="34.6286385%" y2="89.7887541%" id="linearGradient-9">
            <stop stop-color="#ADADAD" offset="0%"></stop>
            <stop stop-color="#3C3C3C" offset="100%"></stop>
        </linearGradient>
        <radialGradient cx="100%" cy="30.7454658%" fx="100%" fy="30.7454658%" r="132.313386%" gradientTransform="translate(1.000000,0.307455),scale(1.000000,0.523413),rotate(90.000000),scale(1.000000,0.871675),translate(-1.000000,-0.307455)" id="radialGradient-10">
            <stop stop-color="#ADADAD" offset="0%"></stop>
            <stop stop-color="#A5A5A5" offset="0%"></stop>
            <stop stop-color="#636363" offset="100%"></stop>
        </radialGradient>
        <linearGradient x1="-3.00836141%" y1="115.117866%" x2="86.4679037%" y2="-4.63028207%" id="linearGradient-11">
            <stop stop-color="#ADADAD" offset="0%"></stop>
            <stop stop-color="#323232" offset="100%"></stop>
        </linearGradient>
    </defs>
    <g id="Page-1" stroke="none" stroke-width="1" fill="none" fill-rule="evenodd">
        <g id="Desktop-HD" transform="translate(-151.000000, -2113.000000)">
            <g id="Group-26" transform="translate(136.000000, 2113.000000)">
                <path d="M220.5,0.5 L220.5,338.5" id="Path-2" stroke="#EE826F" stroke-width="5"></path>
                <g id="Group-22" transform="translate(0.000000, 136.000000)">
                    <g id="Group-37" transform="translate(17.000000, 0.000000)">
                        <path d="M49,119 C49,119 61,62 88,36.5 C115,11 140.5,5 152.5,5 C164.5,5 185.6035,9.3665 185.6035,9.3665 L196,15.5 L177.643,14.681 C177.643,14.681 173.5,11 163,12.5 C152.5,14 122.5,33.5 115,42.5 C108.2095,50.648 94,71 91,83.789 C85,89 49,119 49,119" id="Fill-1" fill="#494949"></path>
                        <path d="M173,12.578 L172.644336,12.3665 C172.644336,12.3665 151.618312,8 139.663216,8 C138.106065,8 136.315789,8.105 134.328255,8.339 C121.646887,12.3725 105.538891,20.6825 88.8540604,36.5 C61.9550955,62 50,119 50,119 C50,119 85.8652865,89 91.8428342,83.789 C94.8316081,71 108.98943,50.648 115.753025,42.5 C123.22496,33.5 153.112699,14 163.573407,12.5 C167.627679,11.9195 170.72106,12.119 173,12.578" id="Fill-3" fill="url(#linearGradient-1)"></path>
                        <g id="Group-7" transform="translate(0.000000, 34.000000)">
                            <polygon id="Clip-6" points="0 0.387449834 346.891694 0.387449834 346.891694 264.999987 0 264.999987"></polygon>
                            <path d="M187.662257,170.979369 C183.155763,170.979369 174.142776,166.470895 174.142776,166.470895 C175.644941,164.96807 201.181737,161.96242 201.070577,164.141516 C200.959417,166.320612 192.16875,170.979369 187.662257,170.979369 Z M135.086499,235.600838 C105.043209,252.131912 100.536716,247.623437 67.4890965,240.109313 C34.4414775,232.595189 14.913339,192.018918 14.913339,175.487844 C14.913339,158.956771 52.4674515,124.391799 52.4674515,124.391799 C52.4674515,124.391799 70.4934255,124.391799 76.5020835,133.408748 C82.5107416,142.425697 142.597322,181.499144 151.610309,186.007618 C160.623296,190.516093 168.134118,199.533042 168.134118,202.538692 C168.134118,205.544341 165.129789,219.069765 135.086499,235.600838 Z M160.967291,0.86260113 C160.967291,0.86260113 156.116802,-1.84548927 147.103815,5.66863503 C138.090828,13.1827593 65.986932,70.290104 65.986932,70.290104 C65.986932,70.290104 58.4761095,77.8042282 49.4631225,85.3183525 C40.4501355,92.8324768 8.90468095,116.877675 2.89602294,128.900273 C-3.11263506,140.922872 1.39385844,164.96807 5.90035195,178.493494 C10.4068455,192.018918 29.934984,238.606488 67.4890965,256.640386 C105.043209,274.674285 147.103815,258.143211 151.610309,256.640386 C156.116802,255.137562 177.147105,241.612138 192.16875,220.57259 C207.190395,199.533042 231.225027,170.979369 252.25533,161.96242 C273.285633,152.945471 346.891694,103.352251 346.891694,103.352251 L160.967291,0.86260113 Z" id="Fill-5" fill="#333333"></path>
                        </g>
                        <path d="M200.427289,197.805829 C200.316477,199.981862 191.553342,204.63407 187.060962,204.63407 C182.568582,204.63407 173.583822,200.131933 173.583822,200.131933 C175.081282,198.631221 200.538101,195.629796 200.427289,197.805829 M156.422932,254 C195.671356,237.760793 223,201.62064 223,159.612702 C223,107.089273 180.29394,63.7291938 124.955309,57 C100.748869,76.3321754 65.7667076,104.086348 65.7667076,104.086348 C65.7667076,104.086348 58.279408,111.589909 49.2946484,119.093471 C40.3098888,126.597032 8.86323037,150.608428 2.87339066,162.614127 C0.0970999522,168.180268 -0.412036423,176.332137 0.273800224,184.817164 C3.46937971,196.516717 8.82878879,207.426896 15.9552006,217.168019 C15.2349224,214.139581 14.8530701,211.405284 14.8530701,209.136207 C14.8530701,192.628372 52.2895683,158.11199 52.2895683,158.11199 C52.2895683,158.11199 70.2590874,158.11199 76.2489271,167.116263 C82.2387668,176.120537 142.137164,215.139056 151.121923,219.641193 C160.106683,224.143329 167.593983,233.147603 167.593983,236.149028 C167.593983,238.153979 166.243274,244.853159 156.422932,254" id="Fill-8" fill="#1C1C1C"></path>
                        <g id="Group-12" transform="translate(83.000000, 0.000000)">
                            <polygon id="Clip-11" points="0.0423203749 0.3 330.959439 0.3 330.959439 208.532788 0.0423203749 208.532788"></polygon>
                            <path d="M3.39847421,99.6561 C3.39847421,99.6561 86.0229086,29.1561 90.5296959,21.6561 C95.0364833,14.1561 110.059108,2.1561 122.077207,0.6561 C134.095307,-0.8439 195.688067,2.1561 245.262728,14.1561 C294.837388,26.1561 299.344176,30.6561 302.3487,35.1561 C305.353225,39.6561 321.878112,66.6561 326.3849,89.1561 C330.891687,111.6561 333.896212,137.1561 326.3849,149.1561 C318.873587,161.1561 303.850963,165.6561 299.344176,167.1561 C294.837388,168.6561 245.262728,180.6561 242.258203,185.1561 C239.253678,189.6561 239.253678,201.6561 237.751415,206.1561 C236.249153,210.6561 218.222004,207.6561 218.222004,206.1561 C218.222004,204.6561 205.452773,187.4061 215.96861,167.9061 C215.96861,167.9061 191.932411,164.9061 148.3668,190.4061 C148.3668,190.4061 134.846438,199.4061 94.285352,197.9061 C53.7242661,196.4061 38.7016416,196.4061 28.1858045,182.9061 C17.6699674,169.4061 -9.37075656,130.4061 3.39847421,99.6561" id="Fill-10" fill="url(#linearGradient-2)"></path>
                        </g>
                        <path d="M278.987121,152.887018 L253.09159,152.72738 L237.398826,150.396951 C237.398826,150.396951 215.652989,145.466051 215.030011,145.504842 C176.379897,102.177078 108.395891,147.362322 94,156.021609 C95.3882233,158.777243 96.8378459,161.428441 98.3039415,163.943871 C106.497005,171.648309 120.419672,184.705869 131.729124,195.137594 C141.961843,197.271084 156.185516,197.645564 177.465616,198.430331 C217.899305,199.922282 231.377201,190.970573 231.377201,190.970573 C274.805978,165.607397 298.766683,168.5913 298.766683,168.5913 C288.283874,187.98667 301.012999,205.144113 301.012999,206.636064 C301.012999,208.128016 318.983527,211.111919 320.481071,206.636064 C321.978615,202.16021 321.978615,190.224597 324.973703,185.748743 C327.968791,181.272888 377.387744,169.337276 381.880376,167.845324 C384.093746,167.111284 388.849946,165.646188 394,162.929344 L302.6588,156.058907 L278.987121,152.887018 Z" id="Fill-13" fill="#3D3D3D"></path>
                        <path d="M318,208.461128 L317.494154,208.122676 C317.494154,208.122676 309.989019,203.609986 306.986965,197.593067 C303.98491,191.576147 312.991073,176.533847 314.4921,175.029617 C315.993127,173.525387 317.494154,169.012698 314.4921,166.004238 C311.490046,162.995778 302.483883,162.995778 293.477721,162.995778 C284.471559,162.995778 230.434585,178.038077 221.428423,178.038077 C212.422261,178.038077 173.395557,181.046537 141.873989,170.516928 C110.352421,159.987318 105.84934,125.390029 105.84934,125.390029 L83.1162856,114 C81.2580141,141.712428 102.156814,171.775968 111.102935,183.302882 C121.610124,196.840952 136.620395,196.840952 177.148125,198.345182 C217.675855,199.849412 231.185099,190.824032 231.185099,190.824032 C274.714883,165.252123 298.731316,168.260583 298.731316,168.260583 C288.224126,187.815572 300.982856,205.114216 300.982856,206.618446 C300.982856,207.830856 312.671354,210.016502 318,208.461128" id="Fill-15" fill="#282828"></path>
                        <g id="Group-19" transform="translate(0.000000, 34.000000)">
                            <polygon id="Clip-18" points="0 0.391734359 169.891381 0.391734359 169.891381 231.334973 0 231.334973"></polygon>
                            <path d="M49.5133274,85.3612245 C40.4566903,92.8983987 8.91341593,116.919947 2.90023009,128.935231 C-3.11746903,140.961037 1.39580531,165.01265 5.90907965,178.541683 C8.91341593,187.547508 18.5943894,211.200766 35.8170442,231.334973 C35.3612035,230.655515 15.7149204,201.303528 15.3343009,180.032883 C15.0785487,178.400379 14.9356283,176.880618 14.9356283,175.535231 C14.9356283,158.999747 52.5462478,124.425554 52.5462478,124.425554 C52.5462478,124.425554 69.0949204,113.902973 72.1037699,113.902973 C75.1126195,113.902973 78.121469,112.399747 78.121469,112.399747 L169.891381,46.2578116 L164.830496,3.15732129 C164.830496,3.15732129 162.336159,0.937056774 159.055009,0.398901935 C158.032,0.355308387 156.649434,0.50112129 154.926867,1.09790194 C151.287664,3.30313419 141.805274,10.4374439 130.312973,19.3470632 C106.138372,38.6274374 66.0860708,70.3094245 66.0860708,70.3094245 C66.0860708,70.3094245 60.0683717,77.8255535 58.5639469,79.3287794 C58.2194336,79.6730181 54.711115,81.9939987 49.5133274,85.3612245" id="Fill-17" fill="#4A4A4A"></path>
                        </g>
                        <polygon id="Fill-20" fill="#6D6D6D" points="72 100.667012 73.0773974 136 155 77.6449516 152.07307 38"></polygon>
                        <polygon id="Fill-22" fill="#303030" points="154.049721 38.0313877 152.625864 38 155.576143 77.6337487 73 135.968612 74.4238566 136 157 77.6651364"></polygon>
                        <path d="M395,162.501502 C375.865854,161.187688 323.666284,157.31982 295.850197,152.474474 C261.374258,146.468468 237.390997,158.48048 211.908781,138.960961 C186.426565,119.441441 177.432842,86.4084084 172.93598,59.3813814 C168.858826,34.8738739 179.276555,17.1006006 181.253675,14 C179.105674,15.9594595 177.288942,17.9174174 175.903909,19.7312312 C172.327405,26.9339339 166.776779,41.8783784 169.938073,60.8828829 C174.434934,87.9099099 183.428657,120.942943 208.910873,140.462462 C234.393089,159.981982 258.376351,147.96997 292.85229,153.975976 C320.647391,158.818318 372.792998,162.683183 391.960122,164 C392.947932,163.546547 393.962724,163.054054 395,162.501502" id="Fill-24" fill="#303030"></path>
                        <path d="M243.180059,128.257313 C241.912073,129.227463 241.390502,130.930269 241.138128,132.521313 C240.754214,134.936597 240.9347,138.430687 244.822781,139.41791 C250.940927,140.970149 254,139.41791 254,134.761194 C254,130.104478 252.470464,127 249.411391,127 C246.352318,127 244.822781,127 243.180059,128.257313" id="Fill-26" fill="#303030"></path>
                        <g id="Group-30" transform="translate(232.000000, 0.000000)">
                            <polygon id="Clip-29" points="0.17885 0.8541 181.9595 0.8541 181.9595 157.995118 0.17885 157.995118"></polygon>
                            <path d="M153.39185,35.1561 C150.39185,30.6561 145.89185,26.1561 96.39185,14.1561 C63.63035,6.2136 25.62485,2.2161 0.17885,0.8541 C44.46335,18.3426 107.61935,55.2921 121.89185,126.6561 C127.91885,156.7851 147.39485,162.5931 172.68335,154.9551 C174.42485,153.2481 176.03435,151.3281 177.39185,149.1561 C184.89185,137.1561 181.89185,111.6561 177.39185,89.1561 C172.89185,66.6561 156.39185,39.6561 153.39185,35.1561" id="Fill-28" fill="#5E5E5E"></path>
                        </g>
                        <path d="M191.631597,12.3801248 C191.631597,12.3801248 182.762087,15.3801958 187.28504,21.6401248 C191.807992,27.9000539 202.361548,20.0751426 200.853897,16.9451781 C199.346247,13.8152135 198.993456,10.9450361 191.631597,12.3801248" id="Fill-31" fill="#303030"></path>
                        <path d="M395.411032,143.379148 C395.411032,143.379148 385.595922,148.644761 392.403952,155.511896 C398.418113,161.57827 403.80229,147.293476 401.425193,144.895742 C398.418113,141.862555 395.411032,143.379148 395.411032,143.379148" id="Fill-33" fill="#303030"></path>
                        <path d="M209.973832,50 C209.973832,50 195.046729,111.423144 247.291589,118.913772 C299.536449,126.404399 307,123.408148 307,123.408148 C307,123.408148 224.900935,117.415646 209.973832,50" id="Fill-35" fill="#7A7A7A"></path>
                    </g>
                    <g id="Group-20" transform="translate(268.502810, 400.899756) rotate(25.000000) translate(-268.502810, -400.899756) translate(191.002810, 298.399756)">
                        <g id="Group-3" transform="translate(0.000000, 0.253000)">
                            <polygon id="Clip-2" points="0 0.747 154.137 0.747 154.137 203 0 203"></polygon>
                            <path d="M13.9881,5.173 C13.9881,5.173 -3.7159,15.5 0.7101,34.678 C5.1361,53.857 19.8881,56.807 25.7901,58.282 C31.6901,59.757 72.9981,68.609 87.7511,70.084 L65.6221,104.015 C65.6221,104.015 52.3441,165.976 58.2451,180.729 C64.1461,195.482 71.5221,201.382 83.3251,202.858 C95.1271,204.333 103.9781,194.006 108.4041,188.105 C112.8301,182.204 123.1571,139.421 126.1071,105.49 C126.1071,105.49 132.0091,99.589 139.3841,98.114 C146.7601,96.639 146.7601,90.737 146.7601,90.737 L154.1371,84.837 C154.1371,84.837 139.3841,59.757 140.8601,55.331 C142.3351,50.905 143.8101,47.955 142.3351,28.777 C140.8601,9.599 56.7701,0.747 49.3931,0.747 C42.0171,0.747 24.3141,0.747 13.9881,5.173" id="Fill-1" fill="url(#linearGradient-3)"></path>
                        </g>
                        <path d="M86.2752,114.5949 C86.2752,114.5949 70.0472,116.0709 71.5222,127.8719 C72.9982,139.6739 84.7992,138.1989 89.2252,138.1989 C93.6512,138.1989 108.4042,138.1989 109.8792,126.3969 C111.3542,114.5949 98.0772,111.6449 86.2752,114.5949" id="Fill-4" fill="#8D8D8D"></path>
                        <path d="M86.2752,114.5949 C86.2752,114.5949 82.9752,114.8989 79.4872,116.3109 C80.1102,116.1239 89.2252,113.6749 89.2252,129.3479 C89.2252,133.5599 88.4272,136.3709 87.2502,138.2399 C88.0012,138.2219 88.6712,138.1989 89.2252,138.1989 C93.6512,138.1989 108.4042,138.1989 109.8792,126.3969 C111.3542,114.5949 98.0772,111.6449 86.2752,114.5949" id="Fill-6" fill="#3B3B3B"></path>
                        <g id="Group-10" transform="translate(117.000000, 48.253000)">
                            <polygon id="Clip-9" points="0.0607207822 0.150475243 37.137 0.150475243 37.137 48.527552 0.0607207822 48.527552"></polygon>
                            <path d="M29.7606,42.7374 L37.1376,36.8374 C37.1376,36.8374 22.3846,11.7574 23.8606,7.3314 C24.0706,6.7004 24.2806,6.0984 24.4826,5.4754 L24.4816,5.4744 C24.4816,5.4744 22.3846,-2.9946 17.9586,1.4304 C13.5326,5.8564 -5.6454,26.5094 1.7316,33.8854 C9.1056,41.2604 13.1296,52.6934 28.0736,46.9844 C29.7516,44.9354 29.7606,42.7374 29.7606,42.7374" id="Fill-8" fill="#3B3B3B"></path>
                        </g>
                        <g id="Group-13" transform="translate(121.000000, 52.253000)">
                            <polygon id="Clip-12" points="0.6812 0.0798646824 33.137 0.0798646824 33.137 41.8591114 0.6812 41.8591114"></polygon>
                            <path d="M19.8602,3.3312 C19.8602,3.3312 19.8602,-1.0948 13.9592,0.3812 C2.1572,7.7572 0.6812,23.9852 0.6812,23.9852 C0.6812,23.9852 8.0572,35.7872 13.9592,40.2132 C19.8602,44.6392 25.7602,38.7372 25.7602,38.7372 L33.1372,32.8372 C33.1372,32.8372 18.3842,7.7572 19.8602,3.3312" id="Fill-11" fill="#3B3B3B"></path>
                        </g>
                        <path d="M151.218,87.4253 L151.965,86.8283 C144.656,80.5143 134.959,52.6343 134.959,52.6343 C121.681,61.4853 129.057,77.7133 130.533,80.6643 C131.674,82.9453 145.16,86.1073 151.218,87.4253 Z" id="Fill-14" fill="url(#linearGradient-4)"></path>
                        <path d="M142.3631,29.4065 C142.3531,29.2795 142.3441,29.1585 142.3351,29.0295 C140.8601,9.8515 56.7701,1.0005 49.3931,1.0005 C42.0171,1.0005 24.3141,1.0005 13.9881,5.4265 C13.9881,5.4265 12.4941,6.3015 10.4861,8.0045 C15.9071,15.4845 42.5691,24.5815 75.4171,29.6335 C106.3901,34.3965 133.1831,34.0745 142.3631,29.4065" id="Fill-16" fill="#6D6D6D"></path>
                        <path d="M138.0731,27.3889 C137.1921,33.1179 109.2251,33.5709 75.6061,28.3999 C41.9881,23.2299 15.4491,14.3939 16.3301,8.6649 C17.2121,2.9369 45.1781,2.4839 78.7971,7.6549 C112.4161,12.8249 138.9551,21.6599 138.0731,27.3889" id="Fill-18" fill="url(#radialGradient-5)"></path>
                    </g>
                    <g id="Group-23" transform="translate(95.893678, 334.461890) rotate(-12.000000) translate(-95.893678, -334.461890) translate(20.393678, 228.461890)">
                        <path d="M57.5326,119.9843 L56.9546,115.8843 C56.9546,115.8843 51.1786,115.7593 51.1786,112.4943 C51.1786,109.2293 53.6896,109.1033 56.3266,108.9773 C58.9646,108.8523 69.8896,108.3493 69.8896,108.3493 C69.8896,108.3493 72.9046,108.2243 73.1556,110.3593 C73.4066,112.4943 72.9616,115.1703 66.4306,115.3813 L66.6256,119.4803 L63.1086,122.4153 L57.5326,119.9843 Z" id="Fill-1" fill=""></path>
                        <path d="M47.1122,124.7997 C47.1122,124.7997 46.1542,120.6567 61.0992,119.6527 C76.0432,118.6477 77.1742,122.2267 77.1742,122.2267 L74.0342,126.0577 L56.8292,127.0617 L47.1122,124.7997 Z" id="Fill-3" fill="#3B3B3B"></path>
                        <g id="Group-7" transform="translate(0.000000, 0.552000)">
                            <polygon id="Clip-6" points="0 0.448157512 150.169 0.448157512 150.169 211 0 211"></polygon>
                            <path d="M78.933,121.4606 C62.081,122.9376 47.112,124.2476 47.112,124.2476 C47.112,124.2476 39.215,124.6456 36.66,122.9376 C34.105,121.2286 19.472,106.1306 25.511,73.8456 C31.55,41.5596 73.951,22.7316 94.263,22.2596 C111.219,21.8656 123.482,22.8566 131.891,34.8236 C137.93,43.4176 136.818,63.3106 124.691,83.6006 C112.31,104.3146 87.446,120.7156 78.933,121.4606 M119.092,122.9376 C120.853,121.7356 151.858,89.6746 150.097,61.4876 C148.335,33.3016 138.118,18.1506 118.739,7.9336 C99.361,-2.2834 79.631,-0.1704 67.652,3.3536 C55.672,6.8766 33.828,17.7986 21.496,30.1306 C21.496,30.1306 -0.348,52.3266 0.004,79.1046 C0.356,105.8816 7.051,113.2796 28.543,132.6576 C50.035,152.0366 51.092,148.5136 56.729,165.4256 C62.367,182.3366 74.698,181.2796 78.222,181.2796 C81.745,181.2796 84.915,179.5186 88.087,183.7456 C91.258,187.9746 113.102,209.8186 120.501,210.8756 C127.9,211.9326 139.879,206.2956 142.698,192.5546 C145.516,178.8136 141.288,167.1866 138.47,157.3216 C135.651,147.4556 136.356,142.8756 129.662,138.6476 C122.967,134.4196 117.33,124.1376 119.092,122.9376 Z" id="Fill-5" fill="url(#linearGradient-6)"></path>
                        </g>
                        <path d="M99.9198,163.8134 C104.1148,152.1274 97.9718,148.0834 93.3278,143.7384 C88.6838,139.3934 70.8568,141.4914 62.1918,142.6894 C55.7488,143.5814 51.5048,149.0254 49.7518,151.7594 C52.6288,155.0004 54.2308,158.4804 56.7298,165.9774 C62.3668,182.8884 74.6978,181.8324 78.2218,181.8324 C80.4388,181.8324 82.5168,181.1364 84.5428,181.6724 C88.5768,178.9294 96.8048,172.4904 99.9198,163.8134" id="Fill-8" fill="#3B3B3B"></path>
                        <path d="M89.5829,146.5848 C85.2379,141.7908 67.7099,144.0378 67.7099,144.0378 L60.0699,145.0868 C56.9549,145.5138 54.2249,149.8748 52.0829,154.8918 C53.6859,157.4898 54.9909,160.7608 56.7289,165.9778 C62.3669,182.8888 74.6979,181.8318 78.2219,181.8318 C79.5019,181.8318 80.7359,181.6048 81.9409,181.5118 C85.4049,179.4468 88.9619,176.3808 91.8299,171.7528 C100.3689,157.9708 93.9269,151.3788 89.5829,146.5848" id="Fill-10" fill="url(#linearGradient-7)"></path>
                        <path d="M56.7289,165.9775 C61.4479,180.1335 70.8539,181.6985 75.8619,181.8325 C77.6699,176.9575 77.7159,173.8605 77.1739,166.2095 C76.5999,158.1205 67.7099,144.0375 67.7099,144.0375 L60.0699,145.0865 C56.9549,145.5135 54.2249,149.8745 52.0829,154.8915 C53.6859,157.4905 54.9909,160.7605 56.7289,165.9775 Z" id="Fill-12" fill="url(#linearGradient-8)"></path>
                        <g id="Group-16" transform="translate(87.000000, 122.552000)">
                            <polygon id="Clip-15" points="0.3657 0.9376 56.6274251 0.9376 56.6274251 89 0.3657 89"></polygon>
                            <path d="M21.0097,14.2946 C17.5637,24.0326 18.3127,32.5716 17.5637,37.2166 C16.8147,41.8596 9.6237,52.3476 6.1777,55.0436 C4.5437,56.3226 2.2737,58.6466 0.3657,60.8956 C0.6057,61.1496 0.8457,61.4256 1.0867,61.7456 C4.2577,65.9746 26.1017,87.8186 33.5007,88.8756 C40.8997,89.9326 52.8787,84.2956 55.6977,70.5546 C58.5167,56.8136 54.2887,45.1866 51.4697,35.3216 C48.6517,25.4556 49.3557,20.8756 42.6617,16.6486 C35.9677,12.4196 30.3297,2.1376 32.0917,0.9376 C32.0917,0.9376 24.4547,4.5576 21.0097,14.2946" id="Fill-14" fill="url(#linearGradient-9)"></path>
                        </g>
                        <path d="M125.3876,141.1171 C125.3876,141.1171 115.3506,161.8651 109.5076,168.1571 C108.3086,172.6521 112.2046,177.4461 116.6986,176.6971 C121.1926,175.9481 130.4816,168.1571 133.0286,165.3111 C135.5756,162.4651 137.1896,158.8411 137.5806,154.5111 C137.9716,150.1801 141.5756,140.3541 129.6616,139.2001 C127.3546,139.2001 125.3876,141.1171 125.3876,141.1171" id="Fill-17" fill="#3B3B3B"></path>
                        <path d="M137.581,154.5106 C137.957,150.3466 141.295,141.1086 130.964,139.3756 C130.759,140.3746 130.398,141.5406 129.732,142.5396 C128.234,144.7866 121.981,151.0786 127.355,157.3706 C130.215,160.7196 132.304,163.0646 133.655,164.5516 C135.834,161.8276 137.224,158.4676 137.581,154.5106" id="Fill-19" fill="url(#radialGradient-10)"></path>
                        <path d="M36.6596,123.4891 C34.1046,121.7801 19.4716,106.6821 25.5106,74.3971 C31.5496,42.1111 73.9506,23.2831 94.2636,22.8111 C111.2196,22.4181 123.4816,23.4091 131.8906,35.3761 C131.8906,35.3761 116.2836,3.6261 83.1146,7.4261 C49.9456,11.2261 37.2936,18.7661 19.4316,39.2071 C12.4826,47.1591 -2.6534,73.7481 6.3746,95.2771 C11.2326,106.2761 21.8046,117.6721 36.6596,123.4891" id="Fill-21" fill="url(#linearGradient-11)"></path>
                    </g>
                </g>
            </g>
        </g>
    </g>
</svg>