<?xml version="1.0" encoding="UTF-8"?>
<svg width="271px" height="340px" viewBox="0 0 271 340" version="1.1" xmlns="http://www.w3.org/2000/svg" xmlns:xlink="http://www.w3.org/1999/xlink">
    <!-- Generator: Sketch 51.3 (57544) - http://www.bohemiancoding.com/sketch -->
    <title>Group 11</title>
    <desc>Created with Sketch.</desc>
    <defs></defs>
    <g id="Page-1" stroke="none" stroke-width="1" fill="none" fill-rule="evenodd">
        <g id="Desktop-HD" transform="translate(-201.000000, -1706.000000)">
            <g id="Group-27" transform="translate(153.000000, 1654.000000)">
                <g id="Group-11" transform="translate(48.000000, 52.000000)">
                    <g id="Group-3">
                        <polygon id="Fill-2" fill="#E4E4E4" points="93 75.8387 93 207.1997 191.521 150.3187 191.521 18.9577"></polygon>
                        <polygon id="Fill-2-Copy" fill="#E4E4E4" points="8 233.23865 8 310 66 276.76135 66 200"></polygon>
                        <polygon id="Fill-2-Copy-2" fill="#1B1B1B" opacity="0.448102679" points="0 335.23865 8 340 66 306.76135 58 302"></polygon>
                        <polygon id="Fill-2-Copy-3" fill="#1B1B1B" opacity="0.448102679" points="99 250.23865 107 255 198 202 190 197.23865"></polygon>
                        <polygon id="Fill-2-Copy-4" fill="#1B1B1B" opacity="0.448102679" points="160 241 168 245.76135 259 192.76135 251 188"></polygon>
                        <polygon id="Fill-1" fill="#EE826F" points="160.0059 56.8802 160.0059 188.2422 258.5269 131.3612 258.5269 0.0002"></polygon>
                    </g>
                    <g id="Group-4" transform="translate(184.000000, 18.000000)" fill="#2D2F35">
                        <polygon id="Fill-1" points="2 120.40133 2 135 87 85.5978016 87 71"></polygon>
                        <polygon id="Fill-2" points="0 98.4013299 0 113 85 63.5986701 85 49"></polygon>
                        <polygon id="Fill-3" points="85 0 64 12.2628434 64 27 85 14.7380334"></polygon>
                    </g>
                </g>
            </g>
        </g>
    </g>
</svg>