<?xml version="1.0" encoding="UTF-8"?>
<svg width="367px" height="483px" viewBox="0 0 367 483" version="1.1" xmlns="http://www.w3.org/2000/svg" xmlns:xlink="http://www.w3.org/1999/xlink">
    <!-- Generator: Sketch 51.3 (57544) - http://www.bohemiancoding.com/sketch -->
    <title>Group 78</title>
    <desc>Created with Sketch.</desc>
    <defs></defs>
    <g id="Page-1" stroke="none" stroke-width="1" fill="none" fill-rule="evenodd">
        <g id="Desktop-HD" transform="translate(-931.000000, -119.000000)">
            <g id="Group-17" transform="translate(479.596094, -437.605695)">
                <g id="Group-78" transform="translate(452.403906, 556.605695)">
                    <polygon id="Fill-1" fill="#212121" points="62 239 4 206.06356 4 130 62 162.93644"></polygon>
                    <polygon id="Fill-2" fill="#FFFFFF" points="119 130.02603 60.9974506 163 3 130.02603 61.1474993 103"></polygon>
                    <polygon id="Fill-3" fill="#FFFFFF" points="119 206.02603 60.9974506 239 3 206.02603 61.1474993 179"></polygon>
                    <polygon id="Fill-4" fill="#EE826F" points="62 239 120 206.06356 120 130 62 162.93644"></polygon>
                    <path d="M4,130 L62,163" id="Stroke-5" stroke="#3898E0" stroke-width="1.152"></path>
                    <path d="M63,104 L5,131" id="Stroke-6" stroke="#3898E0" stroke-width="1.152"></path>
                    <path d="M4.5,207 L4.5,131" id="Stroke-7" stroke="#3898E0" stroke-width="1.152"></path>
                    <path d="M62,104 L120,131" id="Stroke-8" stroke="#3898E0" stroke-width="1.152"></path>
                    <path d="M62,163 L120,130" id="Stroke-9" stroke="#3898E0" stroke-width="1.152"></path>
                    <path d="M119.5,207 L119.5,131" id="Stroke-10" stroke="#3898E0" stroke-width="1.152"></path>
                    <path d="M62.5,239 L62.5,163" id="Stroke-11" stroke="#3898E0" stroke-width="1.152"></path>
                    <path d="M62,240 L120,207" id="Stroke-12" stroke="#3898E0" stroke-width="1.152"></path>
                    <path d="M4,207 L62,240" id="Stroke-13" stroke="#3898E0" stroke-width="1.152"></path>
                    <g id="Group-77">
                        <path d="M58.6159551,239.419817 C58.6159551,236.947178 60.6453268,234.942947 63.1483885,234.942947 C65.6514501,234.942947 67.6808219,236.947178 67.6808219,239.419817 C67.6808219,241.892456 65.6514501,243.896687 63.1483885,243.896687 C60.6453268,243.896687 58.6159551,241.892456 58.6159551,239.419817 Z" id="Stroke-14" stroke="#3898E0" stroke-width="1.152"></path>
                        <path d="M58.6159551,163.40926 C58.6159551,160.936621 60.6453268,158.93239 63.1483885,158.93239 C65.6514501,158.93239 67.6808219,160.936621 67.6808219,163.40926 C67.6808219,165.881899 65.6514501,167.886131 63.1483885,167.886131 C60.6453268,167.886131 58.6159551,165.881899 58.6159551,163.40926 Z" id="Stroke-16" stroke="#3898E0" stroke-width="1.152"></path>
                        <path d="M0.419117296,130.219573 C0.419117296,127.746934 2.44848907,125.742702 4.9515507,125.742702 C7.45461233,125.742702 9.4839841,127.746934 9.4839841,130.219573 C9.4839841,132.692211 7.45461233,134.696443 4.9515507,134.696443 C2.44848907,134.696443 0.419117296,132.692211 0.419117296,130.219573 Z" id="Stroke-18" stroke="#3898E0" stroke-width="1.152"></path>
                        <path d="M0.419117296,206.526203 C0.419117296,204.053565 2.44848907,202.049333 4.9515507,202.049333 C7.45461233,202.049333 9.4839841,204.053565 9.4839841,206.526203 C9.4839841,208.998842 7.45461233,211.003074 4.9515507,211.003074 C2.44848907,211.003074 0.419117296,208.998842 0.419117296,206.526203 Z" id="Stroke-20" stroke="#3898E0" stroke-width="1.152"></path>
                        <path d="M116.275289,130.219573 C116.275289,127.746934 118.304661,125.742702 120.807723,125.742702 C123.310784,125.742702 125.340156,127.746934 125.340156,130.219573 C125.340156,132.692211 123.310784,134.696443 120.807723,134.696443 C118.304661,134.696443 116.275289,132.692211 116.275289,130.219573 Z" id="Stroke-22" stroke="#3898E0" stroke-width="1.152"></path>
                        <path d="M58.7502763,103.137865 C58.7502763,100.665226 60.7796481,98.6609946 63.2827097,98.6609946 C65.7857714,98.6609946 67.8151431,100.665226 67.8151431,103.137865 C67.8151431,105.610504 65.7857714,107.614735 63.2827097,107.614735 C60.7796481,107.614735 58.7502763,105.610504 58.7502763,103.137865 Z" id="Stroke-24" stroke="#3898E0" stroke-width="1.152"></path>
                        <path d="M116.408883,206.588585 C116.408883,204.115946 118.438255,202.111715 120.941317,202.111715 C123.444378,202.111715 125.47375,204.115946 125.47375,206.588585 C125.47375,209.061224 123.444378,211.065455 120.941317,211.065455 C118.438255,211.065455 116.408883,209.061224 116.408883,206.588585 Z" id="Stroke-26" stroke="#3898E0" stroke-width="1.152"></path>
                        <polygon id="Fill-28" fill="#656565" opacity="0.335100446" points="118.645049 391.335939 60.7028099 424.377663 2.76566481 391.335939 60.8527026 359.97669"></polygon>
                        <path d="M226.634767,482.20699 C224.913913,484.926236 212.985805,480.426019 199.993897,472.154461 C187.00126,463.883633 177.865085,454.974399 179.58594,452.255153 C181.307523,449.536636 193.23563,454.037584 206.227539,462.309141 C219.220175,470.579239 228.35635,479.487744 226.634767,482.20699" id="Fill-30" fill="#656565" opacity="0.335100446"></path>
                        <path d="M224.665789,301.977948 C224.665789,317.932269 214.991165,325.265552 203.057964,318.35763 C191.124036,311.44825 181.449412,292.914766 181.449412,276.959715 C181.449412,261.004664 191.124036,253.672111 203.057964,260.580032 C214.991165,267.488683 224.665789,286.022896 224.665789,301.977948" id="Fill-32" fill="#212121"></path>
                        <polygon id="Fill-34" fill="#FFFFFF" points="215.271231 294.194206 193.99739 281.878435 200.485705 276.961612 198.371927 272.913021 188.264361 280.577545 198.371927 299.94497 200.485705 298.343482 193.99739 285.913893 215.271231 298.230393"></polygon>
                        <g id="Group-38" transform="translate(293.236581, 311.542296)">
                            <polygon id="Clip-37" points="0.228622664 0.35422432 71.9157256 0.35422432 71.9157256 137.696952 0.228622664 137.696952"></polygon>
                            <polygon id="Fill-36" fill="#EE826F" points="71.9158712 137.696952 0.228622664 96.1961624 0.228622664 0.35422432 71.9158712 41.8550144"></polygon>
                        </g>
                        <polygon id="Fill-39" fill="#C66C60" points="293.465567 407.73824 357.711301 444.931428 357.711301 358.036664 293.465567 320.844205"></polygon>
                        <polygon id="Fill-41" fill="#F7F7F7" points="340.726281 361.097512 297.856985 336.279922 297.856985 325.680188 340.726281 350.497049"></polygon>
                        <polygon id="Fill-43" fill="#F7F7F7" points="361.098583 425.774277 318.230015 400.956686 318.230015 397.277277 361.098583 422.094867"></polygon>
                        <polygon id="Fill-45" fill="#F7F7F7" points="361.098583 434.550212 318.230015 409.731891 318.230015 406.052482 361.098583 430.870073"></polygon>
                        <polygon id="Fill-47" fill="#EE826F" points="347.355975 455.329791 275.668726 413.829001 275.668726 317.987063 347.355975 359.487853"></polygon>
                        <polygon id="Fill-49" fill="#F7F7F7" points="322.929804 367.188055 280.060508 342.370464 280.060508 331.77 322.929804 356.587591"></polygon>
                        <polygon id="Fill-51" fill="#F7F7F7" points="343.302106 431.864819 300.433538 407.047229 300.433538 403.367819 343.302106 428.18541"></polygon>
                        <polygon id="Fill-53" fill="#F7F7F7" points="343.302106 440.640754 300.433538 415.822434 300.433538 412.143024 343.302106 436.960615"></polygon>
                        <polygon id="Fill-55" fill="#656565" opacity="0.335100446" points="343.604875 481.532249 273.559169 440.981408 279.419535 437.588734 349.465241 478.139575"></polygon>
                        <polygon id="Fill-57" fill="#656565" opacity="0.335100446" points="353.960856 476.774115 283.914422 436.223274 289.774788 432.8306 359.820494 473.382171"></polygon>
                        <polygon id="Fill-59" fill="#212121" points="302.733007 272.913021 204.880033 216.264126 204.880033 0.715525831 302.733007 57.3644216"></polygon>
                        <polygon id="Fill-61" fill="#F7F7F7" points="283.397365 81.1246654 213.561946 40.6956684 213.561946 23.4280536 283.397365 63.8570506"></polygon>
                        <polygon id="Fill-63" fill="#F7F7F7" points="283.397365 132.373519 213.561946 91.9445221 213.561946 89.1063498 283.397365 129.534617"></polygon>
                        <polygon id="Fill-65" fill="#F7F7F7" points="283.397365 126.567596 213.561946 86.1385994 213.561946 83.3004272 283.397365 123.728695"></polygon>
                        <path d="M282.026648,194.954778 C282.026648,210.90983 272.352751,218.242383 260.418823,211.334461 C248.484895,204.42581 238.810998,185.891597 238.810998,169.936546 C238.810998,153.982224 248.484895,146.648942 260.418823,153.556863 C272.352751,160.465514 282.026648,178.999727 282.026648,194.954778" id="Fill-67" fill="#EE826F"></path>
                        <path d="M280.728403,184.320972 C277.709449,171.485721 269.756407,158.962742 260.418678,153.557082 L260.418678,182.445881 L280.728403,184.320972 Z" id="Fill-69" fill="#FFFFFF"></path>
                        <path d="M298.200865,272.913021 C298.200865,270.440382 300.230237,268.436151 302.733298,268.436151 C305.23636,268.436151 307.265732,270.440382 307.265732,272.913021 C307.265732,275.38566 305.23636,277.389891 302.733298,277.389891 C300.230237,277.389891 298.200865,275.38566 298.200865,272.913021 Z" id="Stroke-71" stroke="#3898E0" stroke-width="1.152"></path>
                        <polyline id="Stroke-73" stroke="#3898E0" stroke-width="1.152" points="302.733007 57.3642757 302.733007 272.912875 204.880033 216.26398"></polyline>
                        <path d="M200.523833,216.474252 C200.523833,214.001613 202.553204,211.997382 205.056266,211.997382 C207.559328,211.997382 209.588699,214.001613 209.588699,216.474252 C209.588699,218.946891 207.559328,220.951123 205.056266,220.951123 C202.553204,220.951123 200.523833,218.946891 200.523833,216.474252 Z" id="Stroke-75" stroke="#3898E0" stroke-width="1.152"></path>
                    </g>
                </g>
            </g>
        </g>
    </g>
</svg>