<?xml version="1.0" encoding="UTF-8"?>
<svg width="321px" height="250px" viewBox="0 0 321 250" version="1.1" xmlns="http://www.w3.org/2000/svg" xmlns:xlink="http://www.w3.org/1999/xlink">
    <!-- Generator: Sketch 63 (92445) - https://sketch.com -->
    <title>logo/draftxr</title>
    <desc>Created with Sketch.</desc>
    <g id="Symbols" stroke="none" stroke-width="1" fill="none" fill-rule="evenodd">
        <g id="draft+adobe">
            <g id="logo/draftxr">
                <g id="draftXR-logo_large-on-white">
                    <g id="logo-icon">
                        <path d="M112.204496,-1.46707273e-13 C112.313047,0.0553460313 112.414669,0.147589417 112.527838,0.163732009 C118.595131,1.04004417 123.140404,4.16248277 126.193682,9.44572267 C126.510096,9.98995865 126.856534,10.0983446 127.422384,10.0983446 C150.947866,10.0868142 174.473349,10.0845081 197.998831,10.1029568 C198.633969,10.1029568 198.955002,9.91385786 199.271415,9.35809146 C201.643364,5.19791477 205.121607,2.35220633 209.685356,0.876312162 C210.837842,0.502726451 212.038828,0.28826058 213.219029,0.00230608464 L254.597641,0.00230608464 L254.597641,0.00230608464 C254.669238,0.0553460313 254.736216,0.145283332 254.814743,0.156813755 C260.96749,1.00084073 265.547407,4.16709494 268.633019,9.51259913 C268.903241,9.98304039 269.198868,10.1006507 269.702359,10.0983446 C273.487777,10.0798959 277.270885,10.1006507 281.056303,10.0845081 C283.813953,10.0706716 286.53696,10.3358713 289.248418,10.845516 C304.27692,13.6681636 316.843398,26.1671424 319.672646,41.1451621 C319.975202,42.7455848 320.194613,44.3644563 320.453287,45.9741033 L320.453287,65.9494085 L320.453287,65.9494085 C319.416281,65.9494085 318.379275,65.9078989 317.346889,65.965551 C316.695584,66.0001423 316.55239,65.7787582 316.554699,65.1584214 C316.577795,59.7275921 316.580105,54.2967628 316.566247,48.8682395 C316.524675,32.8962974 305.695008,18.990607 290.25078,15.0587327 C287.319911,14.3138673 284.342849,13.9656486 281.319596,13.9656486 C200.550928,13.9679546 119.78226,13.9610364 39.0135924,13.9725668 C21.7979093,13.9748729 7.29137527,26.3147318 4.44365094,43.3128817 C4.12954672,45.1946467 3.99790009,47.0948605 3.99790009,49.0089107 C4.00482886,75.8701846 3.99328091,102.729152 4.00482886,129.590426 C4.01175763,146.876837 16.2756799,161.342906 33.3597163,164.230124 C35.304391,164.559894 37.2767808,164.686728 39.2560993,164.684422 C65.7032131,164.675198 92.1526364,164.684422 118.59975,164.654443 C119.55823,164.654443 119.911597,164.845848 119.800737,165.844383 C119.701425,166.739144 119.779951,167.652353 119.779951,168.556338 L35.8586926,168.556338 L35.8586926,168.556338 C34.7570182,168.187365 33.5906753,168.198895 32.4566667,168.014408 C16.714502,165.44543 3.87549183,152.981043 0.863786617,137.295055 C0.593564601,135.888343 0.362605612,134.472407 0.113169904,133.061084 L0.113169904,45.77578 L0.113169904,45.77578 C0.487323466,44.4774544 0.487323466,43.1237827 0.741378353,41.8047023 C4.3166235,23.2199662 20.2389362,10.0914264 39.223765,10.0868142 C44.6258958,10.0845081 50.0280265,10.0752838 55.4301573,10.1006507 C56.1484397,10.1052629 56.5549275,9.93461262 56.9429386,9.2612359 C59.4396053,4.92118462 63.1349491,2.07317009 67.950444,0.659540206 C68.8373265,0.398952642 69.7819488,0.396646558 70.6318779,-1.46707273e-13 L112.204496,-1.46707273e-13 L112.204496,-1.46707273e-13 Z M317.540894,95.4119458 C318.506303,95.4926587 319.48095,95.4303945 320.453287,95.4303945 L320.453287,132.865066 L320.453287,132.865066 C320.199232,134.377858 319.968273,135.892956 319.686503,137.398829 C316.884971,152.429888 304.311563,164.986519 289.253037,167.786106 C287.680207,168.078979 286.095828,168.298057 284.516068,168.554032 C245.015153,168.556338 205.516546,168.556338 166.015631,168.556338 C166.015631,167.488621 166.045655,166.420904 166.004083,165.357799 C165.980987,164.795114 166.174992,164.603709 166.713127,164.672892 C166.934847,164.702871 167.165806,164.677504 167.392146,164.677504 C205.366423,164.677504 243.34301,164.67981 281.317286,164.677504 C297.888594,164.677504 311.845446,153.66595 315.681674,137.557949 C316.305264,134.940543 316.573176,132.277015 316.570866,129.583508 C316.563938,118.528138 316.577795,107.472768 316.547771,96.4173987 C316.545461,95.6241056 316.711751,95.3427632 317.540894,95.4119458 Z M14.3333148,103.174227 C15.0723836,103.241103 15.8253099,103.236491 16.5643787,103.174227 C17.2387789,103.118881 17.4327845,103.321816 17.4235461,104.013641 C17.3819735,107.050755 17.4027598,110.090174 17.407379,113.127288 C17.4327845,129.24682 28.135424,143.044124 43.75749,147.112057 C47.4228091,148.066776 51.1597256,148.290467 54.9243571,148.172856 C55.6564971,148.149795 55.9659821,148.306609 55.8874561,149.104514 C55.8112396,149.904726 55.8505026,150.718774 55.8782177,151.525903 C55.8920752,151.950223 55.7465711,152.056303 55.3285353,152.079364 C33.4313136,153.200121 17.4558804,138.212877 14.1393093,120.292293 C13.4903145,116.77782 13.4602899,113.224144 13.5203392,110.491433 C13.5203392,107.793314 13.5480543,105.918467 13.5041721,104.043621 C13.4903145,103.395611 13.6150324,103.109656 14.3333148,103.174227 Z M89.6582794,54.3105169 C109.014952,54.3521088 124.673972,70.0611574 124.639385,89.4069014 C124.604684,108.727278 108.864829,124.369451 89.4919889,124.334917 C70.1422448,124.300268 54.473987,108.581995 54.5085736,89.2385572 C54.5432747,69.9181801 70.2923682,54.2690898 89.6582794,54.3105169 Z M89.5728245,58.1894337 C72.3525224,58.1894337 58.4002899,72.1666126 58.3956707,89.4184318 C58.3933611,106.474234 72.4402868,120.453719 89.5751341,120.451413 C106.756173,120.451413 120.752288,106.474234 120.752288,89.3192702 C120.752288,72.1666126 106.753864,58.1894337 89.5728245,58.1894337 Z M246.079874,64.2613545 C256.826395,68.6037119 263.641995,79.4446158 262.921403,90.9842633 C262.117666,103.838379 252.285742,114.462511 239.51371,116.134422 C231.862038,117.135263 224.972532,115.163561 218.868286,110.431475 C218.244696,109.949503 218.219291,109.681998 218.965288,109.423716 C219.681261,109.176965 220.284064,108.688075 220.898415,108.305265 C221.612078,107.862497 222.025495,107.938598 222.621369,108.342162 C236.518171,117.744069 254.909436,110.433781 258.567826,94.0628863 C261.355501,81.5800501 252.74766,68.7328526 240.125751,66.53746 C238.368153,66.2307508 236.594388,66.0301214 234.813694,66.1754048 C234.192414,66.2261386 233.885239,65.9078989 233.70971,65.5066402 C233.273198,64.4988812 232.485628,63.6986699 232.092997,62.5248728 C236.936207,61.8445778 241.59234,62.4464659 246.079874,64.2613545 Z M115.89984,95.7209611 C113.495557,104.79771 107.90173,111.077179 99.2038144,114.614713 C98.9797842,114.706956 98.7511348,114.886831 98.411625,114.755384 C98.411625,113.588505 98.4416497,112.396259 98.4000771,111.208626 C98.3792908,110.595207 98.8573759,110.572146 99.2015048,110.406108 C105.58983,107.357464 109.825618,102.461647 111.883463,95.6955942 C112.285503,94.3781366 112.303403,94.2765929 113.530411,94.2687783 L115.017283,94.2687269 C116.25338,94.2762224 116.256791,94.3769114 115.89984,95.7209611 Z M114.888239,79.6383269 C115.297037,80.6899015 115.297037,80.6922075 114.126075,80.6922075 C113.188381,80.6922075 112.144447,80.9412647 111.340709,80.6114946 C110.511566,80.2725001 110.430731,79.0825605 109.991909,78.280043 C105.328847,69.7475299 95.7325008,64.9347312 86.1962041,66.3783402 C76.4959266,67.84501 68.7056799,75.2406235 66.7979587,84.792426 C64.8070922,94.7662421 69.5348227,104.78618 78.6022726,109.723507 C79.2120043,110.055583 79.4314154,110.39919 79.3875331,111.05873 C79.3344126,111.863554 79.320555,112.677601 79.3898427,113.480119 C79.4706784,114.393328 79.1265495,114.331064 78.4775547,114.028967 C72.4148813,111.204013 67.8903947,106.820146 65.0218841,100.775899 C63.2943108,97.1322849 62.4790256,93.2742053 62.4720968,90.1425424 C62.515979,75.7295134 72.6273636,64.2152328 85.9698643,62.4879754 C98.473984,60.869104 110.338347,67.9049682 114.888239,79.6383269 Z M215.253777,71.739987 C216.203019,72.7362155 216.507885,74.0645203 217.246953,75.1368497 C217.438649,75.4135798 217.122236,75.6026787 216.988279,75.7986959 C212.713228,82.0343488 211.533028,88.7911768 213.671708,96.0553434 C213.978884,97.0976937 213.036571,97.051572 212.720157,97.4597489 C212.371409,97.9117415 211.530718,97.897905 210.994894,98.4236923 C210.609192,98.8041963 210.269682,98.3245307 210.11494,97.8402529 C208.077882,91.4777654 208.301912,85.200603 210.805507,79.0087658 C211.877157,76.3590745 213.355294,73.9515221 215.253777,71.739987 Z M143.644943,26.7482757 C144.414036,26.7482757 144.769713,26.8681921 144.661163,27.7237495 C144.538754,28.6715503 145.058412,29.9537334 144.44868,30.4979693 C143.919784,30.9684106 142.665677,30.6455587 141.732603,30.6455587 L52.6725069,30.6478648 L52.6725069,30.6478648 C36.0896516,30.6501709 22.1558958,41.6409703 18.2942615,57.7535837 C17.8415819,59.6445731 17.5805982,61.5655416 17.4743571,63.5003466 C17.4397132,64.1206833 17.227231,64.247518 16.6683102,64.2152328 C15.8945976,64.1691111 15.1116466,64.166805 14.337934,64.2152328 C13.7166543,64.2544362 13.5180296,64.0883982 13.5480543,63.4196336 C14.3656491,46.0225311 27.6296238,30.7516386 44.7344465,27.5208141 C47.4135708,27.0157815 50.1088622,26.7598061 52.8364878,26.7621122 C67.5670521,26.7713366 82.2976164,26.7667244 97.0258711,26.7667244 C112.564792,26.7667244 128.103713,26.7736426 143.644943,26.7482757 Z M72.7705581,3.89728304 C68.1606167,3.91342563 64.4006044,5.8390063 61.4997595,9.42035574 C61.3542553,9.60023034 61.0771045,9.75012585 61.2110607,10.0775899 C81.4153531,10.0752838 101.617336,10.0752838 121.883987,10.0752838 C121.851653,9.91847002 121.856272,9.84928749 121.826247,9.80547188 C121.717697,9.64635204 121.602217,9.48953828 121.479809,9.33964278 C118.572035,5.81594546 114.835119,3.91342563 110.262131,3.89728304 C97.7649399,3.85346743 85.267749,3.85116134 72.7705581,3.89728304 Z M215.357709,3.87652828 C214.184437,3.87652828 213.029642,3.99875076 211.895634,4.28009309 C208.415082,5.14487483 205.622788,7.02663989 203.421748,10.0314682 L264.371825,10.0314682 L264.371825,10.0314682 C264.161653,9.73859542 264.030006,9.52874172 263.872954,9.33964278 C260.914369,5.75829334 257.112784,3.89728304 252.46127,3.8880587 C240.093417,3.86499785 227.725563,3.88344653 215.357709,3.87652828 Z" id="dk-gray" fill="#26282F"></path>
                        <path d="M186.058252,26.7782548 C213.3807,26.7690305 240.705458,26.7690305 268.027906,26.7713366 C286.680154,26.7713366 302.19136,39.1227259 306.348622,57.2923667 C306.942186,59.8820998 307.240123,62.5133423 307.240123,65.1699518 C307.244743,81.3332991 307.297863,97.4943402 307.228575,113.657687 C307.150049,132.175547 293.613543,148.188999 275.38395,151.454415 C272.991215,151.883346 270.577693,152.079364 268.141076,152.079364 L223.029878,152.070427 L223.029878,152.070427 L177.916947,152.070139 C147.194783,152.070139 116.470308,152.065527 85.7481437,152.0932 C84.817379,152.0932 84.484798,151.892571 84.6025871,150.947076 C84.6903515,150.246026 84.6533981,149.524222 84.6095159,148.816254 C84.574872,148.281242 84.7850447,148.129041 85.2746778,148.186693 C85.5310422,148.216672 85.7920259,148.191305 86.0507,148.191305 L268.055621,148.191305 L268.055621,148.191305 C284.686978,148.191305 298.676164,137.158996 302.484678,121.027934 C303.094409,118.440507 303.362322,115.809264 303.360012,113.148043 C303.353084,97.3421386 303.364632,81.5339284 303.355393,65.7280243 C303.343845,48.4485321 291.066065,33.9663206 273.991267,31.0929392 C271.914946,30.7447204 269.815529,30.6386405 267.704564,30.6409466 C239.95946,30.6501709 212.216667,30.6409466 184.471563,30.6732318 C183.480749,30.6732318 183.175883,30.4310929 183.289053,29.4671495 C183.388366,28.609286 183.016522,27.4331828 183.459963,26.9512112 C183.975002,26.3862204 185.16444,26.7782548 186.058252,26.7782548 Z M235.917678,54.3105494 C255.27666,54.3405784 270.944918,70.0427087 270.919544,89.3861466 C270.894107,108.711136 255.163491,124.360226 235.79296,124.33489 C216.440907,124.309492 200.76341,108.600444 200.791089,89.259312 C200.814221,69.9343227 216.551767,54.2783141 235.917678,54.3105494 Z M235.839152,58.1917386 C218.621159,58.1963519 204.671237,72.1804491 204.673546,89.4322683 C204.675856,106.485764 218.725091,120.458331 235.864558,120.45372 C253.045597,120.446801 267.037092,106.465009 267.030166,89.3100458 C267.025544,72.1573883 253.020191,58.1871276 235.839152,58.1917386 Z" id="dk-salmon" fill="#E87D6F"></path>
                    </g>
                    <g id="logo-text" transform="translate(28.176997, 222.537167)">
                        <path d="M0.0508109775,26.5199733 L0.0508109775,0.142977248 L9.28455134,0.142977248 C10.9959574,0.142977248 12.3978785,0.285954495 13.4949337,0.567296821 C14.5919889,0.848639147 15.5620167,1.3213865 16.405017,1.98323279 C17.5251681,2.86185103 18.3173574,3.93879256 18.781585,5.21175128 C19.2458125,6.48701608 19.4767715,8.23041607 19.4767715,10.4442573 L19.4767715,16.2002446 C19.4767715,17.7522395 19.3890071,18.9836887 19.2157879,19.8992043 C19.040259,20.8124139 18.7377027,21.6725834 18.3034998,22.479713 C17.5320968,23.8864247 16.4281129,24.9126323 14.9869288,25.55603 C13.5480543,26.2017336 11.6472618,26.5222794 9.28686093,26.5222794 L0.0508109775,26.5222794 L0.0508109775,26.5199733 Z M5.74395005,21.9908231 L8.2198304,21.9908231 C10.4116312,21.9908231 11.8689824,21.5757279 12.5918841,20.7455374 C13.386383,19.8438583 13.7836324,18.1834774 13.7836324,15.7667007 L13.7836324,10.8962499 C13.7836324,8.47947321 13.386383,6.81909227 12.5918841,5.91741318 C11.8689824,5.08722271 10.4116312,4.67212748 8.2198304,4.67212748 L5.74395005,4.67212748 L5.74395005,21.9908231 Z" id="Shape" fill="#E87D6F"></path>
                        <path d="M47.9286093,16.02037 L47.9286093,26.5199733 L42.2377798,26.5199733 L42.2377798,0.142977248 L52.2660191,0.142977248 C54.2176226,0.142977248 55.7119272,0.31823968 56.7466235,0.66645846 C58.2155227,1.171491 59.2964107,2.00859972 59.9892877,3.17547855 C60.6821647,4.34235737 61.0286031,5.91741318 61.0286031,7.90295205 C61.0286031,10.1652211 60.6590688,11.8878663 59.9176904,13.0708877 C59.1763121,14.2585213 57.9568486,15.0887118 56.2593,15.5706835 L61.9686062,26.5222794 L55.6449491,26.5222794 L50.6931884,16.0226761 L47.9286093,16.0226761 L47.9286093,16.02037 Z M47.8385353,11.6526457 L51.7948628,11.6526457 C53.0004687,11.6526457 53.8734937,11.4312615 54.4139377,10.9861872 C55.0652421,10.4580938 55.3885846,9.51951738 55.3885846,8.17045787 C55.3885846,6.89519307 55.1091243,5.99351397 54.5478939,5.46311451 C53.9866636,4.93502112 53.0397317,4.66982139 51.7024792,4.66982139 L47.8362257,4.66982139 L47.8362257,11.6526457 L47.8385353,11.6526457 Z" id="Shape" fill="#E87D6F"></path>
                        <path d="M98.732658,21.5757279 L89.4989177,21.5757279 L87.9445637,26.5199733 L81.7825779,26.5199733 L91.3419704,0.142977248 L96.8526519,0.142977248 L106.430521,26.5199733 L100.268535,26.5199733 L98.732658,21.5757279 Z M97.3769288,17.0488837 L94.1250262,6.78219492 L90.8546469,17.0488837 L97.3769288,17.0488837 Z" id="Shape" fill="#E87D6F"></path>
                        <polygon id="Path" fill="#E87D6F" points="125.974271 26.5199733 125.974271 0.142977248 142.400074 0.142977248 142.400074 4.76206478 131.66741 4.76206478 131.66741 11.0945732 140.630928 11.0945732 140.630928 15.7136607 131.66741 15.7136607 131.66741 26.5199733"></polygon>
                        <polygon id="Path" fill="#E87D6F" points="169.731761 26.5199733 169.731761 4.76206478 162.719846 4.76206478 162.719846 0.142977248 182.434505 0.142977248 182.434505 4.76206478 175.42259 4.76206478 175.42259 26.5199733"></polygon>
                        <polygon id="Path" fill="#26282F" points="209.819312 12.5012848 202.447101 0.142977248 208.680685 0.142977248 213.577015 8.42412718 217.967545 0.142977248 223.930907 0.142977248 216.503265 13.2784353 224.399753 26.5222794 218.16617 26.5222794 212.745563 17.3740417 207.849232 26.5222794 201.885871 26.5222794"></polygon>
                        <path d="M250.123965,16.02037 L250.123965,26.5199733 L244.430826,26.5199733 L244.430826,0.142977248 L254.459066,0.142977248 C256.410669,0.142977248 257.904974,0.31823968 258.93967,0.66645846 C260.408569,1.171491 261.489457,2.00859972 262.182334,3.17547855 C262.875211,4.34235737 263.22165,5.91741318 263.22165,7.90295205 C263.22165,10.1652211 262.852115,11.8878663 262.110737,13.0708877 C261.369359,14.2585213 260.149895,15.0887118 258.452347,15.5706835 L264.161653,26.5222794 L257.837996,26.5222794 L252.886235,16.0226761 L250.123965,16.0226761 L250.123965,16.02037 Z M250.033891,11.6526457 L253.990219,11.6526457 C255.195825,11.6526457 256.06885,11.4312615 256.609294,10.9861872 C257.260598,10.4580938 257.583941,9.51951738 257.583941,8.17045787 C257.583941,6.89519307 257.30448,5.99351397 256.74325,5.46311451 C256.18202,4.93502112 255.235088,4.66982139 253.897835,4.66982139 L250.031582,4.66982139 L250.031582,11.6526457 L250.033891,11.6526457 Z" id="Shape" fill="#26282F"></path>
                    </g>
                </g>
            </g>
        </g>
    </g>
</svg>